<svg xmlns="http://www.w3.org/2000/svg" width="320" height="124" viewBox="0 0 320.1 124.4">
  <path d="M69.7 68c-3.9 11.5-7.7 22.9-10.3 30.5 -1.4 4.3-2.5 7.5-3 9 -3.6 10.4-6.4 16.6-16 16.6l0 0c0 0 0 0 0 0 0 0 0 0 0 0h0c-10.1 0-12.8-7.7-15.9-16.6 -0.9-2.5-4.7-13.8-8-23.8 -2.7-8.1-5.1-15.2-5.3-15.8 -0.3-0.8-1.9-4.6-6.1-4.6H0.7c-0.4 0-0.7-0.3-0.7-0.7V52.2c0-0.4 0.3-0.7 0.7-0.7h30.3c0.4 0 0.7 0.3 0.7 0.7v10.5c0 0.4-0.3 0.7-0.7 0.7h-9.6c2.1 1.5 3.4 4 4.1 6.2 2.4 7.2 6.4 19.4 9.4 28.3 1.4 4.1 2.5 7.5 3.1 9.2 0.7 2.2 1.7 2.4 2.4 2.4 0.7 0 1.7-0.3 2.4-2.4 1.8-5.5 11.1-33 12.6-37.4 1.1-2.9 2.4-5.1 4.1-6.3h-9.7c-0.4 0-0.7-0.3-0.7-0.7V52.2c0-0.4 0.3-0.7 0.7-0.7h30.3c0.4 0 0.7 0.3 0.7 0.7v10.5c0 0.4-0.3 0.7-0.7 0.7h-4.3C71.4 63.4 69.8 67.5 69.7 68M36.9 38.9c0 3.4 2.6 7.6 7.8 7.6h0c9.8 0 13.7-9.7 13.7-15.7 0-0.5 0-1-0.1-1.5 -0.1-3.6-1.3-7.3-4-10.4 0 0 0 0 0 0 0 0 0 0 0 0l0 0c-6.8 6.6-15 14.6-15 14.6S36.9 35.5 36.9 38.9M31 45.3c0.9 0.4 1.7-0.6 1.2-1.4 -2-2.8-2.1-5.4-2.1-7.3 0 0-0.1-4.8 3.7-8.5 3.8-3.7 10.2-9.9 10.5-10.2 2.5-2.5 5.2-9.4 0-14.5 -1.7-1.7-2.7-2.6-3.3-3.2 -0.4-0.4-0.9-0.3-1.3 0L25.6 13.9c0 0-5.7 5.1-5.7 14C20 35.5 25 42.2 31 45.3M267.3 112h-1.7c-0.8 0-3.6-0.3-3.6-3.5V88.3c0-13.8-10.8-21.3-21-21.3 -5.8 0-11.3 2.4-15 6.5 -4-4.2-9.3-6.5-15-6.5 -3.7 0-10.5 0.8-14.9 5.8 -2.5-3.3-6.4-5-11.5-5H181.3c-0.4 0-0.7 0.3-0.7 0.7v10.2c0 0.4 0.3 0.7 0.7 0.7l1.3 0c2.8 0 4.1 2.2 4.1 4.4v24.3c0 2-1.9 3.9-4 3.9H181.3c-0.4 0-0.7 0.3-0.7 0.7v10.3c0 0.4 0.3 0.7 0.7 0.7h23.4c0.4 0 0.7-0.3 0.7-0.7V112.7c0-0.4-0.3-0.7-0.7-0.7h-6.6c0.9-0.8 1.6-2 1.6-3.9V95.5c0-12.6 2.2-16.1 10-16.1 6.7 0 9.1 3 9.1 10.9v17.5c0 2-1.1 4.2-3.6 4.2h-1.7c-0.4 0-0.7 0.3-0.7 0.7v10.2c0 0.4 0.3 0.7 0.7 0.7h23.4c0.4 0 0.7-0.3 0.7-0.7V112.7c0-0.4-0.3-0.7-0.7-0.7h-6.4c1.1-1.2 1.4-3 1.4-3.9v-20.5c0-5.3 3-8.3 8.5-8.3 6.2 0 8.6 3.1 8.6 11.2v18.6c0 9.7 5.2 14.4 15.8 14.4h2.5c0.4 0 0.7-0.3 0.7-0.7V112.7C268 112.3 267.7 112 267.3 112M115 75.7c4.7 5.3 7.3 12.5 7.3 20.3 0 16.7-10.9 28.4-26.6 28.4 -16.5 0-27.2-11.2-27.2-28.5 0-7.9 2.5-15 7.1-20.2 4.9-5.5 11.9-8.4 20.1-8.4C103.3 67.3 110.1 70.3 115 75.7M108.9 95.9c0-10.1-5.2-16.4-13.4-16.4 -8.9 0-13.4 5.5-13.4 16.3 0 10.1 5.2 16.4 13.7 16.4C103.8 112.2 108.9 106 108.9 95.9M317.8 114.9c0.1 0.1 0.2 0.3 0.2 0.5 0 0.2-0.1 0.4-0.2 0.5 -0.2 0.2-0.4 0.4-0.6 0.5 -6.3 5.1-13.7 7.9-20.7 7.9 -16.6 0-27.4-11.2-27.4-28.5 0-19.7 13.6-28.6 26.3-28.6 14.2 0 24.9 10.7 24.9 25 0 4.9-4.1 10.2-11.6 10.2h-20.7c-1.8 0-3.3-0.2-4.7-0.5 1 3.8 3.9 10.3 12.4 10.3 5.2 0 9.5-1.7 14.2-5.6 0.3-0.2 0.7-0.2 1 0.1 3.3 3.8 3.7 4.3 3.9 4.5C314.7 111.4 314.8 111.5 317.8 114.9M283.2 89.6c0 0.5 1 0.8 3.1 0.8h18c3.2 0 3.2-0.6 3.2-0.8 0-4.9-4.8-10.2-12.5-10.2C288 79.4 283.2 84.8 283.2 89.6M172.3 75.7c4.7 5.3 7.3 12.5 7.3 20.3 0 16.7-10.9 28.4-26.6 28.4 -16.5 0-27.2-11.2-27.2-28.5 0-7.9 2.5-15 7.1-20.2 4.9-5.5 11.9-8.4 20.1-8.4C160.6 67.3 167.5 70.3 172.3 75.7M166.3 95.9c0-10.1-5.2-16.4-13.4-16.4 -8.9 0-13.4 5.5-13.4 16.3 0 10.1 5.2 16.4 13.7 16.4C161.2 112.2 166.3 106 166.3 95.9"/>
</svg>
